<svg width="40" height="40" viewBox="0 0 60 60" fill="none" xmlns="http://www.w3.org/2000/svg">
<path d="M33.7554 0.46875L33.3155 6.00586H28.1543V24.4467H27.5782C24.1221 24.4467 20.9855 26.4689 19.5593 29.617L6.00586 59.5312H24.4629L25.6512 55.5722C34.2394 52.9559 36.4959 44.7656 36.4959 44.7656H48.457V40.5188L50.9248 40.7149L53.9941 2.0768L33.7554 0.46875ZM46.6113 39.0483C44.7933 39.5398 43.4011 41.0475 43.0777 42.9199H32.5854C31.8923 46.4646 29.2699 49.6896 25.736 51.1331C25.6219 51.1798 25.5035 51.2018 25.3873 51.2018C25.0235 51.2018 24.6787 50.9852 24.5325 50.6278C24.3398 50.156 24.566 49.6174 25.0378 49.4245C28.5023 48.0094 30.922 44.5755 30.922 41.0742C30.922 41.0726 30.9225 40.1512 30.9225 40.1512H40.305C41.6991 40.1512 42.8944 39.0605 42.9192 37.6666C42.9445 36.2473 41.8024 35.0895 40.3887 35.0871L23.7701 35.0756C23.2605 35.0756 22.8471 34.6624 22.8471 34.1527C22.8471 33.6429 23.2603 33.2297 23.7701 33.2297H29.9998V11.5397C31.8745 11.1572 33.3485 9.70289 33.7732 7.85156H42.9108C43.3305 9.68672 44.7792 11.119 46.6113 11.5237V39.0483ZM49.5375 34.8691C49.1606 34.9397 48.7995 35.0557 48.457 35.208V6.00586H35.8012C37.4081 5.58211 38.7063 4.35609 39.2105 2.75367L48.3192 3.47742C48.5925 5.34 49.9228 6.88242 51.7172 7.43086L49.5375 34.8691ZM44.8116 25.1728C44.8181 21.6391 41.9965 18.6656 38.3212 18.6588C34.7876 18.6523 31.8136 21.6152 31.8073 25.1491C31.8007 28.6828 34.6223 31.6563 38.2976 31.6631C41.8312 31.6697 44.805 28.7067 44.8116 25.1728ZM34.492 25.7196L33.3612 25.7175L33.3635 24.4453L34.353 24.4472C34.354 23.8816 34.638 23.1755 34.7803 22.6104L36.1931 23.0372C36.0513 23.3196 35.9088 23.8847 35.9072 24.7329C35.906 25.4395 36.1877 25.8642 36.612 25.8652C37.0362 25.8661 37.3195 25.4423 37.7454 24.4537C38.3133 23.0412 38.88 22.3355 40.0109 22.3378C41.0002 22.481 41.8465 23.3306 42.1275 24.462L43.2584 24.4641L43.256 25.7362L42.2665 25.7344C42.2653 26.2999 41.9805 27.4301 41.8385 27.8538L40.4257 27.427C40.7093 27.0035 40.9934 26.156 40.9948 25.4491C40.9962 24.6009 40.7145 24.1765 40.1489 24.1755C39.7249 24.1746 39.4416 24.457 39.0157 25.4456C38.5894 26.7169 37.8809 27.7052 36.75 27.7031C35.6191 27.7005 34.7721 26.992 34.492 25.7196Z" fill="#8B6B3D"/>
</svg>
